:SAMPLES-PER-SECOND 30
:FULLY-SPECIFIED
:DEGREES
201
root  -69.0416 38.8681 -0.275111 -179.42 78.2857 -177.477
RightUpLeg  -25.9113 -18.6617 11.2919
RightLeg  23.4028 -6.58373 -3.35336
RightFoot  -1.22832 0.831827 -9.46579
RightToes  0.00048216 0.542163 -0.142577
Spine  10.6699 -3.48005 5.74729
Spine1  10.4087 -4.66556 4.56524
HEad  -6.83505 -10.752 -1.25064
LeftShoulder1  8.86539 -12.9741 -46.9457
LeftArm  2.16754 2.80978 -33.86
LeftForeArm  34.1956 -22.4857 -3.39193
LeftHand  -0.25398 0.0180481 5.50724
RightShoulder  4.72445 8.01959 35.038
RightArm  -10.5166 -21.9252 34.0567
RightForeArm  12.3129 14.7944 4.99413
RightHand  -0.455545 -1.14318 -12.2691
LeftUpLeg  20.9738 16.6718 3.5765
LeftLeg  18.3326 -2.58717 -0.804216
LeftFoot  -19.066 -0.47229 -8.82272
LeftToes  1.06247e-005 4.65855e-005 -8.185e-006
202
root  -67.6324 38.8839 -0.606008 -175.799 78.2163 -173.998
RightUpLeg  -25.0733 -18.5334 11.3396
RightLeg  26.2954 -6.70121 -3.81815
RightFoot  -3.94092 0.620569 -9.96329
RightToes  0.00048216 0.542163 -0.142577
Spine  10.6283 -3.61078 7.75246
Spine1  10.4343 -4.44305 4.60575
HEad  -5.55963 -9.98899 -2.53867
LeftShoulder1  8.78094 -12.9017 -46.6972
LeftArm  1.55141 4.63645 -34.0318
LeftForeArm  35.409 -26.2675 -3.72084
LeftHand  -0.25398 0.0180481 5.50724
RightShoulder  4.7935 8.18867 35.034
RightArm  -12.981 -20.7355 34.4386
RightForeArm  11.3589 13.9435 4.86803
RightHand  -0.419984 -1.58893 -12.6041
LeftUpLeg  18.2725 15.6988 4.96952
LeftLeg  26.0899 -3.40124 -1.4208
LeftFoot  -12.9797 -0.0992263 -13.2259
LeftToes  1.06247e-005 4.65855e-005 -8.185e-006
203
root  -66.2751 38.9279 -0.858056 -172.129 77.8639 -170.872
RightUpLeg  -24.2163 -19.3256 11.7091
RightLeg  28.07 -6.36964 -3.9116
RightFoot  -6.65176 0.363773 -9.92251
RightToes  0.00048216 0.542163 -0.142577
Spine  10.1304 -3.6002 9.46929
Spine1  10.3737 -4.16687 4.76234
HEad  -4.18516 -9.5169 -2.87863
LeftShoulder1  8.63032 -12.7472 -46.3226
LeftArm  1.24809 6.20736 -34.051
LeftForeArm  36.3405 -29.1269 -4.33311
LeftHand  -0.25398 0.0180481 5.50724
RightShoulder  4.68189 7.98441 34.7956
RightArm  -13.759 -19.3999 35.3261
RightForeArm  9.36983 14.3946 4.83349
RightHand  -0.365987 -2.26573 -13.1488
LeftUpLeg  12.4283 13.3265 5.60687
LeftLeg  36.6149 -2.85626 -1.90983
LeftFoot  -2.46414 1.13525 -14.7444
LeftToes  1.06247e-005 4.65855e-005 -8.185e-006
204
root  -65.0343 38.9209 -1.05986 -167.628 77.2773 -166.643
RightUpLeg  -23.1073 -20.2403 12.308
RightLeg  29.512 -6.07353 -3.95707
RightFoot  -9.10193 0.121077 -9.25196
RightToes  0.00048216 0.542163 -0.142577
Spine  9.9349 -3.5026 11.5682
Spine1  10.5165 -3.62332 4.76033
HEad  -2.91149 -9.68923 -2.65743
LeftShoulder1  8.48803 -12.6038 -45.9532
LeftArm  0.816114 7.03569 -34.1187
LeftForeArm  36.39 -30.5506 -4.65268
LeftHand  -0.25398 0.0180481 5.50724
RightShoulder  4.63579 7.85856 34.8397
RightArm  -12.5198 -18.153 35.9135
RightForeArm  8.04148 16.6482 4.76002
RightHand  -0.419745 -1.65532 -12.8162
LeftUpLeg  5.36581 10.2284 6.20164
LeftLeg  47.5555 -2.12585 -2.07727
LeftFoot  7.62016 2.07324 -12.697
LeftToes  1.06247e-005 4.65855e-005 -8.185e-006
205
root  -63.8227 38.971 -1.24228 -165.464 77.1211 -164.148
RightUpLeg  -20.8023 -20.7628 12.1196
RightLeg  30.1673 -5.66631 -3.80645
RightFoot  -11.3291 -0.0757282 -8.25506
RightToes  0.00048216 0.542163 -0.142577
Spine  10.3461 -3.24264 13.0361
Spine1  10.848 -2.87039 4.58899
HEad  -1.95572 -10.3189 -2.39466
LeftShoulder1  8.3924 -12.4993 -45.7244
LeftArm  -0.515385 7.60278 -34.0733
LeftForeArm  35.531 -30.9844 -4.79887
LeftHand  -0.25398 0.0180481 5.50724
RightShoulder  4.72023 7.98513 35.1211
RightArm  -9.83045 -16.687 36.0695
RightForeArm  6.69397 20.0493 4.59891
RightHand  -0.524932 -0.525808 -12.4544
LeftUpLeg  -0.841003 7.39225 6.41286
LeftLeg  56.5795 -1.1522 -1.34252
LeftFoot  11.2441 1.83881 -9.46986
LeftToes  1.06247e-005 4.65855e-005 -8.185e-006
